# xmcd
#
# Track frame offsets: 
#        150
#        12902
#        22564
#        32236
#        44024
#        58657
#        71402
#        85313
#        96003
#        108030
#        117713
#        127454
#        139744
#        151143
#        164397
#        172674
#        185590
#        196061
#        207216
#        219954
#        230015
#        242550
#        252917
#        263654
#        274885
#        286772
#        297554
#        308742
#        322245
#        332364
#
# Disc length: 4584 seconds
#
# Revision: 0
# Processed by: cddbd v1.5.2PL0 Copyright (c) Steve Scherf et al.
# Submitted via: ExactAudioCopy v1.3
#
DISCID=b011e61e
DTITLE=Various Artist - Mighty Instrumentals R&B Style 1961 [CD2]
DYEAR=1961
DGENRE=R&B
TTITLE0=Albert King - Dyna Flow
TTITLE1=Earl Hooker - Rockin' with the Kid
TTITLE2=Johnny Otis - Let's Rock
TTITLE3=Mac Rebennack - Good Times
TTITLE4=Freddy King - The Stumble
TTITLE5=Jimmy Reed - Blue Carnegie
TTITLE6=Jack Dupree - Rattlesnake Boogie
TTITLE7=Freddy Robinson - The Hawk
TTITLE8=Big Bo Thomas - Big Bo's Twist
TTITLE9=Haze Hart - Red River Shuffle
TTITLE10=Hank Marr - Ram Bunk Shush
TTITLE11=B.B. King - Don't Touch
TTITLE12=Herbie Mann - Why Don't You Do Right
TTITLE13=Sonny Thompson - Hangout (pt. 1)
TTITLE14=Sonny Thompson - Hangout (pt. 2)
TTITLE15=Bill Doggett - You Can't Sit Down (pt. 1)
TTITLE16=Bill Doggett - You Can't Sit Down (pt. 2)
TTITLE17=The Parkays - Get It
TTITLE18=Big Walter - Watusi Freeze (pt. 1)
TTITLE19=Big Walter - Watusi Freeze (pt. 2)
TTITLE20=Herb Hardesty - The Chicken Twist
TTITLE21=Ace Holder - Lonesome Harmonica
TTITLE22=Big Jay McNeely - The Squat
TTITLE23=Jimmy Forest - Night Walk
TTITLE24=Jump Jackson - Midnight Shuffle
TTITLE25=Daddly Goodloe - Jamil (pt. 1)
TTITLE26=Daddly Goodloe - Jamil (pt. 2)
TTITLE27=Elliot Shavers - Way Down Home Blues
TTITLE28=The Church Street Five - Night with Daddy G (pt. 1)
TTITLE29=The Church Street Five - Night with Daddy G (pt. 2)
EXTD=
EXTT0=
EXTT1=
EXTT2=
EXTT3=
EXTT4=
EXTT5=
EXTT6=
EXTT7=
EXTT8=
EXTT9=
EXTT10=
EXTT11=
EXTT12=
EXTT13=
EXTT14=
EXTT15=
EXTT16=
EXTT17=
EXTT18=
EXTT19=
EXTT20=
EXTT21=
EXTT22=
EXTT23=
EXTT24=
EXTT25=
EXTT26=
EXTT27=
EXTT28=
EXTT29=
PLAYORDER=
